# xmcd
#
# Track frame offsets: 
#        150
#        11350
#        29690
#        54650
#        73892
#        86905
#        108025
#        122770
#        143142
#        155490
#        169910
#
# Disc length: 2503 seconds
#
# Revision: 0
# Processed by: cddbd v1.5.2PL0 Copyright (c) Steve Scherf et al.
# Submitted via: ExactAudioCopy v0.99pb3
#
DISCID=9609c50b
DTITLE=Henry Gray and Rudi Richards - Louisiana Swamp Blues Vol 2 
DYEAR=1990
DGENRE=Blues
TTITLE0=Big Mamou - Rudi Richards
TTITLE1=Blues Won't Let Me Rest - Henry Gary
TTITLE2=King Bee - Rudi Richards
TTITLE3=Cold Chills - Henry Gray
TTITLE4=Talkin' About You - Henry Gray
TTITLE5=Bad Luck and Trouble - Rudi Richards
TTITLE6=Tee Ni Nee Na Nu - Rudi Richards
TTITLE7=When My First Wife - Henry gray
TTITLE8=Come On Home - Henry Gray
TTITLE9=Good For The Goose - Rudi Richards
TTITLE10=Honky Tonky - Rudi Richards
EXTD=
EXTT0=
EXTT1=
EXTT2=
EXTT3=
EXTT4=
EXTT5=
EXTT6=
EXTT7=
EXTT8=
EXTT9=
EXTT10=
PLAYORDER=
